STARTFONT 2.1
FONT -sun-helmetcondensed-medium-i-semicondensed--20-200-75-75-p-91-adobe-fontspecific
SIZE 20 75 75
FONTBOUNDINGBOX 21 24 -3 -5

STARTPROPERTIES 28
FOUNDRY "sun"
FAMILY_NAME "helmetcondensed"
WEIGHT_NAME "medium"
SLANT "i"
SETWIDTH_NAME "semicondensed"
ADD_STYLE_NAME ""
PIXEL_SIZE 21
POINT_SIZE 200
RESOLUTION_X 75
RESOLUTION_Y 75
SPACING "p"
AVERAGE_WIDTH 91
CHARSET_REGISTRY "adobe"
CHARSET_ENCODING "fontspecific"
COPYRIGHT "© 1999 Sun Microsystems, Inc."
RAW_PIXELSIZE 1000
RAW_POINTSIZE 964
RAW_ASCENT 911
RAW_DESCENT 217
RAW_AVERAGE_WIDTH 4390
FACE_NAME "HelmetCondensedItalicedB5"
_XMBDFED_INFO "Edited with xmbdfed 2.4."
WEIGHT 10
X_HEIGHT -2
QUAD_WIDTH 11
DEFAULT_CHAR 4
FONT_DESCENT 5
FONT_ASCENT 19
ENDPROPERTIES

CHARS 210

STARTCHAR char32
ENCODING 32
SWIDTH 30 0
DWIDTH 7 0
BBX 0 0 0 0
BITMAP
ENDCHAR

STARTCHAR char33
ENCODING 33
SWIDTH 17 0
DWIDTH 4 0
BBX 5 16 0 -1
BITMAP
18
10
10
10
10
30
20
20
20
20
40
00
00
00
40
80
ENDCHAR

STARTCHAR char34
ENCODING 34
SWIDTH 25 0
DWIDTH 6 0
BBX 6 6 1 10
BITMAP
24
68
68
48
48
90
ENDCHAR

STARTCHAR char35
ENCODING 35
SWIDTH 8 0
DWIDTH 12 0
BBX 11 15 0 0
BITMAP
0880
0880
0880
1980
7FE0
1980
1100
1100
1100
FFC0
7FC0
3300
3300
2200
2200
ENDCHAR

STARTCHAR char36
ENCODING 36
SWIDTH 43 0
DWIDTH 10 0
BBX 9 16 0 -1
BITMAP
0400
1F00
2480
2480
2400
2400
1800
0C00
0E00
0900
8900
9100
D300
7600
3800
1000
ENDCHAR

STARTCHAR char37
ENCODING 37
SWIDTH 25 0
DWIDTH 16 0
BBX 13 15 0 0
BITMAP
1820
6440
4440
C480
C480
8530
8D48
8A48
8A48
7488
0488
0888
0890
1090
20E0
ENDCHAR

STARTCHAR char38
ENCODING 38
SWIDTH 43 0
DWIDTH 10 0
BBX 10 15 0 0
BITMAP
1E00
3300
2100
2100
2300
1600
1800
3800
6400
C440
8280
8380
8100
4300
3C80
ENDCHAR

STARTCHAR char39
ENCODING 39
SWIDTH 12 0
DWIDTH 3 0
BBX 2 5 2 10
BITMAP
40
40
C0
80
80
ENDCHAR

STARTCHAR char40
ENCODING 40
SWIDTH 25 0
DWIDTH 6 0
BBX 7 19 2 -3
BITMAP
04
08
10
30
20
40
40
C0
80
80
80
80
80
80
80
40
40
40
40
ENDCHAR

STARTCHAR char41
ENCODING 41
SWIDTH 25 0
DWIDTH 6 0
BBX 7 19 -2 -3
BITMAP
08
08
04
04
02
02
02
02
02
06
06
04
0C
08
18
10
20
40
80
ENDCHAR

STARTCHAR char42
ENCODING 42
SWIDTH 34 0
DWIDTH 8 0
BBX 6 6 2 9
BITMAP
10
90
5C
30
50
50
ENDCHAR

STARTCHAR char43
ENCODING 43
SWIDTH 43 0
DWIDTH 10 0
BBX 10 9 0 2
BITMAP
0400
0400
0400
0400
FFC0
0400
0400
0400
0400
ENDCHAR

STARTCHAR char44
ENCODING 44
SWIDTH 12 0
DWIDTH 3 0
BBX 2 5 -1 -3
BITMAP
40
40
C0
80
80
ENDCHAR

STARTCHAR char45
ENCODING 45
SWIDTH 34 0
DWIDTH 8 0
BBX 5 1 1 6
BITMAP
F8
ENDCHAR

STARTCHAR char46
ENCODING 46
SWIDTH 12 0
DWIDTH 3 0
BBX 2 2 -1 -1
BITMAP
40
80
ENDCHAR

STARTCHAR char47
ENCODING 47
SWIDTH 21 0
DWIDTH 5 0
BBX 7 16 -1 -1
BITMAP
02
02
04
04
08
08
08
10
10
20
20
20
40
40
80
80
ENDCHAR

STARTCHAR char48
ENCODING 48
SWIDTH 43 0
DWIDTH 10 0
BBX 9 15 0 0
BITMAP
0E00
1900
3180
2080
6080
6080
4180
C180
C100
C100
8300
8300
8200
C600
7800
ENDCHAR

STARTCHAR char49
ENCODING 49
SWIDTH 43 0
DWIDTH 10 0
BBX 5 15 2 0
BITMAP
08
18
38
F0
10
10
30
20
20
20
20
60
40
40
40
ENDCHAR

STARTCHAR char50
ENCODING 50
SWIDTH 43 0
DWIDTH 10 0
BBX 9 15 0 0
BITMAP
0E00
1100
3180
2080
2080
0080
0100
0300
0400
1800
3000
6000
C000
8000
FE00
ENDCHAR

STARTCHAR char51
ENCODING 51
SWIDTH 43 0
DWIDTH 10 0
BBX 9 15 0 0
BITMAP
0E00
1300
3180
2080
0080
0100
0300
1C00
0600
0300
0300
8300
8200
4600
7C00
ENDCHAR

STARTCHAR char52
ENCODING 52
SWIDTH 43 0
DWIDTH 10 0
BBX 8 15 0 0
BITMAP
01
01
03
05
0B
0A
12
22
42
46
FF
04
04
04
0C
ENDCHAR

STARTCHAR char53
ENCODING 53
SWIDTH 43 0
DWIDTH 10 0
BBX 9 14 0 0
BITMAP
1F80
1000
1000
3000
2000
7E00
6300
0100
0100
0100
8300
8200
C600
7C00
ENDCHAR

STARTCHAR char54
ENCODING 54
SWIDTH 43 0
DWIDTH 10 0
BBX 8 15 1 0
BITMAP
1C
32
21
40
40
40
BC
C6
82
82
82
86
84
8C
78
ENDCHAR

STARTCHAR char55
ENCODING 55
SWIDTH 43 0
DWIDTH 10 0
BBX 7 14 2 0
BITMAP
FE
06
04
08
18
30
20
60
40
40
C0
80
80
80
ENDCHAR

STARTCHAR char56
ENCODING 56
SWIDTH 43 0
DWIDTH 10 0
BBX 9 15 0 0
BITMAP
0F00
1980
3080
2080
2080
2100
1300
3C00
6200
C300
8300
8300
8200
4600
3C00
ENDCHAR

STARTCHAR char57
ENCODING 57
SWIDTH 43 0
DWIDTH 10 0
BBX 8 15 0 0
BITMAP
0C
32
21
61
41
41
41
63
23
1D
02
02
82
84
78
ENDCHAR

STARTCHAR char58
ENCODING 58
SWIDTH 17 0
DWIDTH 4 0
BBX 4 11 0 -1
BITMAP
30
20
00
00
00
00
00
00
00
40
80
ENDCHAR

STARTCHAR char59
ENCODING 59
SWIDTH 17 0
DWIDTH 4 0
BBX 4 13 0 -3
BITMAP
30
20
00
00
00
00
00
00
40
40
C0
80
80
ENDCHAR

STARTCHAR char60
ENCODING 60
SWIDTH 12 0
DWIDTH 13 0
BBX 10 11 1 0
BITMAP
0040
00C0
0780
1C00
7000
C000
E000
3800
0E00
01C0
0040
ENDCHAR

STARTCHAR char61
ENCODING 61
SWIDTH 43 0
DWIDTH 10 0
BBX 10 4 0 4
BITMAP
FFC0
0000
0000
FFC0
ENDCHAR

STARTCHAR char62
ENCODING 62
SWIDTH 12 0
DWIDTH 13 0
BBX 10 11 1 0
BITMAP
8000
C000
7800
0E00
0380
00C0
01C0
0700
1C00
E000
8000
ENDCHAR

STARTCHAR char63
ENCODING 63
SWIDTH 34 0
DWIDTH 8 0
BBX 7 16 1 -1
BITMAP
3C
46
C2
82
02
04
0C
18
30
20
20
00
00
00
40
40
ENDCHAR

STARTCHAR char64
ENCODING 64
SWIDTH 11 0
DWIDTH 23 0
BBX 15 15 3 0
BITMAP
07E0
1838
200C
4394
4672
8C62
9822
9822
9066
9844
4CC8
4770
2004
1818
07E0
ENDCHAR

STARTCHAR char65
ENCODING 65
SWIDTH 38 0
DWIDTH 9 0
BBX 9 15 -2 0
BITMAP
0100
0100
0280
0280
0480
0480
0C80
0880
1880
1080
3F80
2080
6080
4080
C080
ENDCHAR

STARTCHAR char66
ENCODING 66
SWIDTH 43 0
DWIDTH 10 0
BBX 9 15 0 0
BITMAP
1F00
1180
3080
2080
2080
2180
6300
7E00
4200
4100
4100
C100
8300
8600
FC00
ENDCHAR

STARTCHAR char67
ENCODING 67
SWIDTH 43 0
DWIDTH 10 0
BBX 9 15 1 0
BITMAP
0E00
3180
2080
4080
4080
4000
4000
8000
8000
8000
8100
8300
8200
4400
7800
ENDCHAR

STARTCHAR char68
ENCODING 68
SWIDTH 3 0
DWIDTH 11 0
BBX 10 15 0 0
BITMAP
1F00
1180
30C0
2040
2040
2040
6040
6040
4040
4080
4080
C180
8100
8200
FC00
ENDCHAR

STARTCHAR char69
ENCODING 69
SWIDTH 38 0
DWIDTH 9 0
BBX 9 15 0 0
BITMAP
1F80
1000
3000
2000
2000
2000
2000
7F00
4000
4000
4000
4000
C000
8000
FE00
ENDCHAR

STARTCHAR char70
ENCODING 70
SWIDTH 38 0
DWIDTH 9 0
BBX 9 15 0 0
BITMAP
1F80
1000
3000
2000
2000
2000
7F00
6000
4000
4000
4000
C000
C000
8000
8000
ENDCHAR

STARTCHAR char71
ENCODING 71
SWIDTH 3 0
DWIDTH 11 0
BBX 9 15 1 0
BITMAP
1E00
3100
2080
4080
4000
4000
4000
8000
8F00
8100
8100
8300
8200
4600
7A00
ENDCHAR

STARTCHAR char72
ENCODING 72
SWIDTH 3 0
DWIDTH 11 0
BBX 11 15 0 0
BITMAP
1020
1020
3060
2060
2040
2040
6040
7FC0
4080
4080
4080
C180
C180
8100
8100
ENDCHAR

STARTCHAR char73
ENCODING 73
SWIDTH 17 0
DWIDTH 4 0
BBX 4 15 0 0
BITMAP
10
10
10
30
20
20
20
60
60
40
40
40
C0
80
80
ENDCHAR

STARTCHAR char74
ENCODING 74
SWIDTH 34 0
DWIDTH 8 0
BBX 8 15 0 0
BITMAP
01
01
01
03
02
02
02
06
06
04
04
84
8C
88
70
ENDCHAR

STARTCHAR char75
ENCODING 75
SWIDTH 43 0
DWIDTH 10 0
BBX 10 15 0 0
BITMAP
1040
10C0
3180
2300
2600
2C00
7800
7800
6400
4400
4400
C600
C200
8200
8300
ENDCHAR

STARTCHAR char76
ENCODING 76
SWIDTH 34 0
DWIDTH 8 0
BBX 7 15 0 0
BITMAP
10
10
30
20
20
20
20
60
40
40
40
40
C0
80
FC
ENDCHAR

STARTCHAR char77
ENCODING 77
SWIDTH 20 0
DWIDTH 15 0
BBX 14 15 0 0
BITMAP
180C
381C
2814
2818
2828
2828
6C48
4C58
4C90
4C90
C510
C530
8630
8620
8420
ENDCHAR

STARTCHAR char78
ENCODING 78
SWIDTH 3 0
DWIDTH 11 0
BBX 11 15 0 0
BITMAP
1020
3820
3860
2860
2840
2C40
6440
64C0
4480
4480
4280
C280
8380
8300
8300
ENDCHAR

STARTCHAR char79
ENCODING 79
SWIDTH 3 0
DWIDTH 11 0
BBX 9 15 1 0
BITMAP
1E00
3100
2080
4080
4080
C080
8080
8180
8100
8100
8100
8300
8200
C400
7800
ENDCHAR

STARTCHAR char80
ENCODING 80
SWIDTH 43 0
DWIDTH 10 0
BBX 10 15 0 0
BITMAP
1F00
1180
30C0
2040
2040
20C0
6180
7F00
4000
4000
4000
C000
C000
8000
8000
ENDCHAR

STARTCHAR char81
ENCODING 81
SWIDTH 3 0
DWIDTH 11 0
BBX 9 16 1 -1
BITMAP
1E00
3100
2180
4080
4080
4080
4080
8180
8100
8100
8100
8A00
8A00
C400
7B00
0100
ENDCHAR

STARTCHAR char82
ENCODING 82
SWIDTH 43 0
DWIDTH 10 0
BBX 10 15 0 0
BITMAP
1F00
3080
3040
2040
2040
20C0
6180
7E00
4300
4100
4100
C100
C100
8100
8100
ENDCHAR

STARTCHAR char83
ENCODING 83
SWIDTH 43 0
DWIDTH 10 0
BBX 9 15 0 0
BITMAP
0F00
1180
3080
2080
2000
2000
1000
0C00
0600
0100
0100
8100
8100
4200
3C00
ENDCHAR

STARTCHAR char84
ENCODING 84
SWIDTH 34 0
DWIDTH 8 0
BBX 8 15 1 0
BITMAP
FF
08
18
10
10
10
30
30
20
20
20
60
40
40
40
ENDCHAR

STARTCHAR char85
ENCODING 85
SWIDTH 3 0
DWIDTH 11 0
BBX 11 15 0 0
BITMAP
1020
3060
2060
2040
2040
6040
60C0
4080
4080
C080
C080
8180
8100
4300
3C00
ENDCHAR

STARTCHAR char86
ENCODING 86
SWIDTH 38 0
DWIDTH 9 0
BBX 8 15 2 0
BITMAP
81
83
83
82
86
84
8C
88
98
90
B0
A0
E0
C0
C0
ENDCHAR

STARTCHAR char87
ENCODING 87
SWIDTH 16 0
DWIDTH 14 0
BBX 14 15 1 0
BITMAP
C308
C308
C708
C518
C510
CD30
4920
4920
5160
5140
5140
61C0
6180
6180
4100
ENDCHAR

STARTCHAR char88
ENCODING 88
SWIDTH 38 0
DWIDTH 9 0
BBX 12 15 -2 0
BITMAP
1830
0830
0860
0CC0
0480
0580
0500
0200
0600
0F00
1900
1100
3180
6080
4080
ENDCHAR

STARTCHAR char89
ENCODING 89
SWIDTH 38 0
DWIDTH 9 0
BBX 9 15 1 0
BITMAP
C080
4180
4300
4200
6600
2C00
2800
3800
1000
3000
2000
2000
2000
6000
6000
ENDCHAR

STARTCHAR char90
ENCODING 90
SWIDTH 34 0
DWIDTH 8 0
BBX 10 15 -1 0
BITMAP
1FC0
0080
0180
0100
0300
0600
0400
0C00
0800
1000
3000
2000
4000
C000
FE00
ENDCHAR

STARTCHAR char91
ENCODING 91
SWIDTH 21 0
DWIDTH 5 0
BBX 7 18 -1 -3
BITMAP
0E
08
08
18
10
10
10
10
20
20
20
20
60
40
40
40
40
E0
ENDCHAR

STARTCHAR char92
ENCODING 92
SWIDTH 25 0
DWIDTH 6 0
BBX 6 15 0 0
BITMAP
80
C0
40
40
60
20
20
30
10
10
18
18
08
0C
0C
ENDCHAR

STARTCHAR char93
ENCODING 93
SWIDTH 21 0
DWIDTH 5 0
BBX 7 18 -2 -3
BITMAP
0E
06
04
04
04
04
08
08
08
08
18
10
10
10
10
20
20
E0
ENDCHAR

STARTCHAR char94
ENCODING 94
SWIDTH 0 0
DWIDTH 0 0
BBX 5 2 -1 16
BITMAP
30
48
ENDCHAR

STARTCHAR char95
ENCODING 95
SWIDTH 8 0
DWIDTH 12 0
BBX 12 1 0 -3
BITMAP
FFF0
ENDCHAR

STARTCHAR char96
ENCODING 96
SWIDTH 0 0
DWIDTH 0 0
BBX 3 3 -1 12
BITMAP
80
40
40
ENDCHAR

STARTCHAR char97
ENCODING 97
SWIDTH 34 0
DWIDTH 8 0
BBX 7 11 0 0
BITMAP
1C
22
42
02
06
3C
44
84
8C
8C
74
ENDCHAR

STARTCHAR char98
ENCODING 98
SWIDTH 38 0
DWIDTH 9 0
BBX 8 15 -1 0
BITMAP
10
10
10
10
3E
31
31
21
21
61
41
41
42
64
BC
ENDCHAR

STARTCHAR char99
ENCODING 99
SWIDTH 34 0
DWIDTH 8 0
BBX 7 11 0 0
BITMAP
1C
22
42
40
C0
C0
80
80
84
CC
78
ENDCHAR

STARTCHAR char100
ENCODING 100
SWIDTH 38 0
DWIDTH 9 0
BBX 9 15 0 0
BITMAP
0080
0080
0180
0100
1D00
2300
6300
4300
C200
8200
8200
8200
8400
8C00
7400
ENDCHAR

STARTCHAR char101
ENCODING 101
SWIDTH 34 0
DWIDTH 8 0
BBX 7 11 0 0
BITMAP
1C
22
42
42
C2
FE
80
80
84
CC
78
ENDCHAR

STARTCHAR char102
ENCODING 102
SWIDTH 17 0
DWIDTH 4 0
BBX 6 15 0 0
BITMAP
08
10
10
30
78
20
20
20
60
40
40
40
C0
80
80
ENDCHAR

STARTCHAR char103
ENCODING 103
SWIDTH 38 0
DWIDTH 9 0
BBX 8 15 0 -4
BITMAP
1D
23
43
43
C2
82
82
86
84
8C
74
04
88
88
70
ENDCHAR

STARTCHAR char104
ENCODING 104
SWIDTH 38 0
DWIDTH 9 0
BBX 8 15 0 0
BITMAP
10
10
20
20
2E
33
61
41
43
42
42
C2
86
84
84
ENDCHAR

STARTCHAR char105
ENCODING 105
SWIDTH 17 0
DWIDTH 4 0
BBX 4 15 0 0
BITMAP
10
20
00
00
20
20
20
60
40
40
40
C0
80
80
80
ENDCHAR

STARTCHAR char106
ENCODING 106
SWIDTH 17 0
DWIDTH 4 0
BBX 6 19 -2 -4
BITMAP
04
08
00
00
08
08
08
10
10
10
10
10
20
20
20
20
60
40
C0
ENDCHAR

STARTCHAR char107
ENCODING 107
SWIDTH 30 0
DWIDTH 7 0
BBX 8 15 0 0
BITMAP
10
10
30
20
23
26
6C
58
50
70
50
C8
88
88
84
ENDCHAR

STARTCHAR char108
ENCODING 108
SWIDTH 17 0
DWIDTH 4 0
BBX 4 15 0 0
BITMAP
10
10
30
20
20
20
20
60
40
40
40
C0
80
80
80
ENDCHAR

STARTCHAR char109
ENCODING 109
SWIDTH 16 0
DWIDTH 14 0
BBX 12 11 0 0
BITMAP
2EE0
3310
6310
4210
4210
4210
C620
C420
8420
8420
8420
ENDCHAR

STARTCHAR char110
ENCODING 110
SWIDTH 38 0
DWIDTH 9 0
BBX 8 11 0 0
BITMAP
2E
33
61
43
43
42
42
C6
86
84
84
ENDCHAR

STARTCHAR char111
ENCODING 111
SWIDTH 38 0
DWIDTH 9 0
BBX 7 11 0 0
BITMAP
1C
22
42
42
C2
82
82
82
84
CC
78
ENDCHAR

STARTCHAR char112
ENCODING 112
SWIDTH 38 0
DWIDTH 9 0
BBX 9 15 -1 -4
BITMAP
1700
1980
3080
3080
2080
2080
2180
6100
6100
6200
5C00
C000
C000
8000
8000
ENDCHAR

STARTCHAR char113
ENCODING 113
SWIDTH 38 0
DWIDTH 9 0
BBX 8 15 0 -4
BITMAP
1D
23
63
43
C2
82
82
82
86
8C
74
04
0C
0C
08
ENDCHAR

STARTCHAR char114
ENCODING 114
SWIDTH 21 0
DWIDTH 5 0
BBX 6 11 0 0
BITMAP
2C
30
20
60
40
40
40
C0
80
80
80
ENDCHAR

STARTCHAR char115
ENCODING 115
SWIDTH 30 0
DWIDTH 7 0
BBX 7 11 0 0
BITMAP
3C
44
42
40
60
30
0C
04
84
8C
70
ENDCHAR

STARTCHAR char116
ENCODING 116
SWIDTH 21 0
DWIDTH 5 0
BBX 4 14 1 0
BITMAP
20
20
60
70
40
40
40
40
40
40
80
80
80
C0
ENDCHAR

STARTCHAR char117
ENCODING 117
SWIDTH 38 0
DWIDTH 9 0
BBX 8 11 0 0
BITMAP
21
21
61
43
42
42
C2
82
84
8C
74
ENDCHAR

STARTCHAR char118
ENCODING 118
SWIDTH 30 0
DWIDTH 7 0
BBX 7 11 1 0
BITMAP
84
84
8C
88
98
90
B0
A0
E0
C0
C0
ENDCHAR

STARTCHAR char119
ENCODING 119
SWIDTH 3 0
DWIDTH 11 0
BBX 11 11 0 0
BITMAP
4460
4440
4C40
4CC0
4C80
5580
5500
6500
6700
6600
4600
ENDCHAR

STARTCHAR char120
ENCODING 120
SWIDTH 30 0
DWIDTH 7 0
BBX 8 11 -1 0
BITMAP
21
23
36
14
18
18
38
28
4C
C4
84
ENDCHAR

STARTCHAR char121
ENCODING 121
SWIDTH 30 0
DWIDTH 7 0
BBX 10 15 -2 -4
BITMAP
1080
1080
1180
1100
1300
1200
1600
1400
1C00
1800
1800
1000
3000
2000
C000
ENDCHAR

STARTCHAR char122
ENCODING 122
SWIDTH 30 0
DWIDTH 7 0
BBX 8 11 -1 0
BITMAP
3F
02
06
04
08
18
10
20
60
40
FC
ENDCHAR

STARTCHAR char123
ENCODING 123
SWIDTH 30 0
DWIDTH 7 0
BBX 5 19 1 -4
BITMAP
18
30
20
20
20
20
20
60
40
80
60
60
20
20
20
20
20
30
18
ENDCHAR

STARTCHAR char124
ENCODING 124
SWIDTH 25 0
DWIDTH 6 0
BBX 1 15 2 0
BITMAP
80
80
80
80
80
80
80
80
80
80
80
80
80
80
80
ENDCHAR

STARTCHAR char125
ENCODING 125
SWIDTH 30 0
DWIDTH 7 0
BBX 5 19 1 -4
BITMAP
C0
20
20
20
20
20
20
30
10
08
10
30
20
20
20
20
20
60
C0
ENDCHAR

STARTCHAR char126
ENCODING 126
SWIDTH 0 0
DWIDTH 0 0
BBX 6 2 -1 16
BITMAP
74
88
ENDCHAR

STARTCHAR char128
ENCODING 128
SWIDTH 43 0
DWIDTH 10 0
BBX 11 15 -1 0
BITMAP
0380
0C60
0820
1020
1020
7F80
1000
FF80
2000
2000
2040
20C0
2080
1100
1E00
ENDCHAR

STARTCHAR char130
ENCODING 130
SWIDTH 12 0
DWIDTH 3 0
BBX 2 5 -1 -3
BITMAP
40
40
C0
80
80
ENDCHAR

STARTCHAR char131
ENCODING 131
SWIDTH 0 0
DWIDTH 0 0
BBX 5 2 -1 16
BITMAP
30
48
ENDCHAR

STARTCHAR char132
ENCODING 132
SWIDTH 25 0
DWIDTH 6 0
BBX 5 5 -1 -3
BITMAP
48
58
D0
90
A0
ENDCHAR

STARTCHAR char133
ENCODING 133
SWIDTH 7 0
DWIDTH 22 0
BBX 16 2 2 0
BITMAP
C183
C183
ENDCHAR

STARTCHAR char134
ENCODING 134
SWIDTH 38 0
DWIDTH 9 0
BBX 8 18 1 -3
BITMAP
08
08
08
08
10
FE
10
10
30
20
20
20
20
40
40
40
40
40
ENDCHAR

STARTCHAR char135
ENCODING 135
SWIDTH 3 0
DWIDTH 21 0
BBX 0 0 0 0
BITMAP
ENDCHAR

STARTCHAR char136
ENCODING 136
SWIDTH 0 0
DWIDTH 0 0
BBX 6 3 -2 12
BITMAP
38
28
4C
ENDCHAR

STARTCHAR char137
ENCODING 137
SWIDTH 3 0
DWIDTH 21 0
BBX 0 0 0 0
BITMAP
ENDCHAR

STARTCHAR char139
ENCODING 139
SWIDTH 30 0
DWIDTH 7 0
BBX 3 7 2 2
BITMAP
20
60
C0
80
E0
60
20
ENDCHAR

STARTCHAR char140
ENCODING 140
SWIDTH 20 0
DWIDTH 15 0
BBX 16 15 0 0
BITMAP
0F7F
18C0
10C0
20C0
20C0
6080
4080
C0FC
8080
8180
8100
8100
8300
4700
3FF8
ENDCHAR

STARTCHAR char142
ENCODING 142
SWIDTH 3 0
DWIDTH 21 0
BBX 0 0 0 0
BITMAP
ENDCHAR

STARTCHAR char144
ENCODING 144
SWIDTH 3 0
DWIDTH 21 0
BBX 0 0 0 0
BITMAP
ENDCHAR

STARTCHAR char145
ENCODING 145
SWIDTH 12 0
DWIDTH 3 0
BBX 2 4 2 10
BITMAP
80
C0
80
80
ENDCHAR

STARTCHAR char146
ENCODING 146
SWIDTH 12 0
DWIDTH 3 0
BBX 3 6 1 10
BITMAP
20
60
60
20
40
40
ENDCHAR

STARTCHAR char147
ENCODING 147
SWIDTH 25 0
DWIDTH 6 0
BBX 5 4 2 10
BITMAP
90
D8
B0
A0
ENDCHAR

STARTCHAR char148
ENCODING 148
SWIDTH 25 0
DWIDTH 6 0
BBX 6 6 1 10
BITMAP
24
68
68
48
48
90
ENDCHAR

STARTCHAR char149
ENCODING 149
SWIDTH 30 0
DWIDTH 7 0
BBX 5 5 1 5
BITMAP
70
F8
F8
F8
70
ENDCHAR

STARTCHAR char150
ENCODING 150
SWIDTH 43 0
DWIDTH 10 0
BBX 7 1 1 6
BITMAP
FE
ENDCHAR

STARTCHAR char151
ENCODING 151
SWIDTH 43 0
DWIDTH 10 0
BBX 10 1 0 6
BITMAP
FFC0
ENDCHAR

STARTCHAR char152
ENCODING 152
SWIDTH 0 0
DWIDTH 0 0
BBX 6 1 -2 13
BITMAP
7C
ENDCHAR

STARTCHAR char153
ENCODING 153
SWIDTH 38 0
DWIDTH 19 0
BBX 17 8 0 6
BITMAP
208380
9EC300
90C300
10A500
10A500
109900
109900
39D380
ENDCHAR

STARTCHAR char154
ENCODING 154
SWIDTH 3 0
DWIDTH 21 0
BBX 0 0 0 0
BITMAP
ENDCHAR

STARTCHAR char155
ENCODING 155
SWIDTH 30 0
DWIDTH 7 0
BBX 3 7 2 2
BITMAP
80
C0
60
20
E0
80
80
ENDCHAR

STARTCHAR char156
ENCODING 156
SWIDTH 16 0
DWIDTH 14 0
BBX 13 11 0 0
BITMAP
1CF0
2398
4308
4308
C208
83F8
8200
8200
8610
CE20
79C0
ENDCHAR

STARTCHAR char159
ENCODING 159
SWIDTH 38 0
DWIDTH 9 0
BBX 9 18 1 0
BITMAP
1A00
1200
0000
C080
4100
4300
4200
6400
2C00
2800
3800
1000
3000
2000
2000
2000
6000
6000
ENDCHAR

STARTCHAR char160
ENCODING 160
SWIDTH 34 0
DWIDTH 8 0
BBX 0 0 0 0
BITMAP
ENDCHAR

STARTCHAR char161
ENCODING 161
SWIDTH 17 0
DWIDTH 4 0
BBX 5 15 0 0
BITMAP
18
10
00
00
10
10
20
20
20
20
60
40
40
40
40
ENDCHAR

STARTCHAR char162
ENCODING 162
SWIDTH 34 0
DWIDTH 8 0
BBX 7 14 0 -2
BITMAP
08
1C
2A
6A
48
D0
90
90
90
A4
E4
78
20
40
ENDCHAR

STARTCHAR char163
ENCODING 163
SWIDTH 43 0
DWIDTH 10 0
BBX 9 15 0 0
BITMAP
0F00
0900
1080
1080
3000
3000
3000
7E00
1000
1000
1000
2000
2000
4000
FE00
ENDCHAR

STARTCHAR char164
ENCODING 164
SWIDTH 0 0
DWIDTH 0 0
BBX 4 2 1 16
BITMAP
20
40
ENDCHAR

STARTCHAR char165
ENCODING 165
SWIDTH 0 0
DWIDTH 0 0
BBX 5 2 0 16
BITMAP
90
60
ENDCHAR

STARTCHAR char166
ENCODING 166
SWIDTH 3 0
DWIDTH 21 0
BBX 0 0 0 0
BITMAP
ENDCHAR

STARTCHAR char167
ENCODING 167
SWIDTH 43 0
DWIDTH 10 0
BBX 9 18 0 -3
BITMAP
0F00
1180
1080
1000
1000
1800
6C00
4600
4300
6100
3100
1100
1E00
0800
0400
C400
4400
3800
ENDCHAR

STARTCHAR char168
ENCODING 168
SWIDTH 0 0
DWIDTH 0 0
BBX 5 2 -1 12
BITMAP
98
90
ENDCHAR

STARTCHAR char169
ENCODING 169
SWIDTH 29 0
DWIDTH 17 0
BBX 14 14 1 0
BITMAP
0F80
1040
2030
47D0
88C8
8844
9004
9004
9004
8804
4C88
4710
3020
0FC0
ENDCHAR

STARTCHAR char170
ENCODING 170
SWIDTH 0 0
DWIDTH 0 0
BBX 4 2 0 16
BITMAP
D0
90
ENDCHAR

STARTCHAR char171
ENCODING 171
SWIDTH 38 0
DWIDTH 9 0
BBX 7 5 1 4
BITMAP
22
4C
90
88
44
ENDCHAR

STARTCHAR char172
ENCODING 172
SWIDTH 20 0
DWIDTH 15 0
BBX 13 6 0 0
BITMAP
FFF8
0008
0008
0008
0008
0008
ENDCHAR

STARTCHAR char173
ENCODING 173
SWIDTH 3 0
DWIDTH 21 0
BBX 0 0 0 0
BITMAP
ENDCHAR

STARTCHAR char174
ENCODING 174
SWIDTH 29 0
DWIDTH 17 0
BBX 14 14 1 0
BITMAP
0F80
1040
2020
5F10
8888
8884
8904
8F04
8B04
8984
9CE8
4010
2020
1FC0
ENDCHAR

STARTCHAR char175
ENCODING 175
SWIDTH 3 0
DWIDTH 21 0
BBX 0 0 0 0
BITMAP
ENDCHAR

STARTCHAR char176
ENCODING 176
SWIDTH 34 0
DWIDTH 8 0
BBX 6 6 1 8
BITMAP
70
88
84
84
84
78
ENDCHAR

STARTCHAR char177
ENCODING 177
SWIDTH 8 0
DWIDTH 12 0
BBX 11 13 0 0
BITMAP
0400
0400
0400
0400
0400
FFE0
0400
0400
0400
0400
0400
0000
FFE0
ENDCHAR

STARTCHAR char178
ENCODING 178
SWIDTH 3 0
DWIDTH 21 0
BBX 0 0 0 0
BITMAP
ENDCHAR

STARTCHAR char179
ENCODING 179
SWIDTH 3 0
DWIDTH 21 0
BBX 0 0 0 0
BITMAP
ENDCHAR

STARTCHAR char180
ENCODING 180
SWIDTH 0 0
DWIDTH 0 0
BBX 4 3 0 12
BITMAP
30
60
40
ENDCHAR

STARTCHAR char181
ENCODING 181
SWIDTH 3 0
DWIDTH 21 0
BBX 0 0 0 0
BITMAP
ENDCHAR

STARTCHAR char182
ENCODING 182
SWIDTH 20 0
DWIDTH 15 0
BBX 9 18 2 -3
BITMAP
3F80
7100
F100
F100
F100
F100
F100
7100
1100
1100
1100
1100
1100
1100
1100
1100
1100
1100
ENDCHAR

STARTCHAR char183
ENCODING 183
SWIDTH 17 0
DWIDTH 4 0
BBX 2 2 1 5
BITMAP
C0
C0
ENDCHAR

STARTCHAR char184
ENCODING 184
SWIDTH 0 0
DWIDTH 0 0
BBX 2 4 -3 -5
BITMAP
40
40
C0
80
ENDCHAR

STARTCHAR char186
ENCODING 186
SWIDTH 0 0
DWIDTH 0 0
BBX 6 2 -1 16
BITMAP
74
88
ENDCHAR

STARTCHAR char187
ENCODING 187
SWIDTH 38 0
DWIDTH 9 0
BBX 7 6 0 3
BITMAP
44
26
12
26
CC
88
ENDCHAR

STARTCHAR char188
ENCODING 188
SWIDTH 3 0
DWIDTH 21 0
BBX 0 0 0 0
BITMAP
ENDCHAR

STARTCHAR char191
ENCODING 191
SWIDTH 34 0
DWIDTH 8 0
BBX 6 15 0 0
BITMAP
04
08
00
00
08
08
10
30
60
40
80
84
84
8C
78
ENDCHAR

STARTCHAR char192
ENCODING 192
SWIDTH 38 0
DWIDTH 9 0
BBX 9 18 -2 0
BITMAP
0300
0100
0000
0100
0100
0280
0280
0480
0480
0C80
0880
1880
1080
3F80
2080
6080
4080
C080
ENDCHAR

STARTCHAR char193
ENCODING 193
SWIDTH 38 0
DWIDTH 9 0
BBX 11 18 -2 0
BITMAP
0040
0080
0000
0100
0100
0280
0280
0480
0480
0C80
0880
1880
1080
3F80
2080
6080
4080
C080
ENDCHAR

STARTCHAR char194
ENCODING 194
SWIDTH 38 0
DWIDTH 9 0
BBX 10 18 -2 0
BITMAP
0180
0240
0000
0100
0100
0280
0280
0480
0480
0C80
0880
1880
1080
3F80
2080
6080
4080
C080
ENDCHAR

STARTCHAR char195
ENCODING 195
SWIDTH 38 0
DWIDTH 9 0
BBX 11 18 -2 0
BITMAP
03A0
0240
0000
0100
0100
0280
0280
0480
0480
0C80
0880
1880
1080
3F80
2080
6080
4080
C080
ENDCHAR

STARTCHAR char196
ENCODING 196
SWIDTH 38 0
DWIDTH 9 0
BBX 11 18 -2 0
BITMAP
0140
0240
0000
0100
0100
0280
0280
0480
0480
0C80
0880
1880
1080
3F80
2080
6080
4080
C080
ENDCHAR

STARTCHAR char197
ENCODING 197
SWIDTH 38 0
DWIDTH 9 0
BBX 10 19 -2 0
BITMAP
01C0
0240
0240
0180
0100
0100
0280
0280
0480
0480
0C80
0880
1880
1080
3F80
2080
6080
4080
C080
ENDCHAR

STARTCHAR char198
ENCODING 198
SWIDTH 20 0
DWIDTH 15 0
BBX 16 15 0 0
BITMAP
00FF
0140
0340
0240
04C0
0480
0880
08FC
1080
1F80
2100
6100
4100
C300
83F8
ENDCHAR

STARTCHAR char199
ENCODING 199
SWIDTH 43 0
DWIDTH 10 0
BBX 9 20 1 -5
BITMAP
0E00
3180
2080
4080
4080
4000
4000
8000
8000
8000
8100
8300
8200
4400
7800
0000
2000
2000
4000
4000
ENDCHAR

STARTCHAR char200
ENCODING 200
SWIDTH 38 0
DWIDTH 9 0
BBX 9 18 0 0
BITMAP
0800
0400
0000
1F80
1000
3000
2000
2000
2000
2000
7F00
4000
4000
4000
4000
C000
8000
FE00
ENDCHAR

STARTCHAR char201
ENCODING 201
SWIDTH 38 0
DWIDTH 9 0
BBX 9 18 0 0
BITMAP
0100
0200
0000
1F80
1000
3000
2000
2000
2000
2000
7F00
4000
4000
4000
4000
C000
8000
FE00
ENDCHAR

STARTCHAR char202
ENCODING 202
SWIDTH 38 0
DWIDTH 9 0
BBX 9 18 0 0
BITMAP
0600
0900
0000
1F80
1000
3000
2000
2000
2000
2000
7F00
4000
4000
4000
4000
C000
8000
FE00
ENDCHAR

STARTCHAR char203
ENCODING 203
SWIDTH 38 0
DWIDTH 9 0
BBX 9 18 0 0
BITMAP
0D00
0900
0000
1F80
1000
3000
2000
2000
2000
2000
7F00
4000
4000
4000
4000
C000
8000
FE00
ENDCHAR

STARTCHAR char204
ENCODING 204
SWIDTH 17 0
DWIDTH 4 0
BBX 4 18 0 0
BITMAP
20
10
00
10
10
10
30
20
20
20
60
60
40
40
40
C0
80
80
ENDCHAR

STARTCHAR char205
ENCODING 205
SWIDTH 17 0
DWIDTH 4 0
BBX 7 18 0 0
BITMAP
04
08
00
10
10
10
30
20
20
20
60
60
40
40
40
C0
80
80
ENDCHAR

STARTCHAR char206
ENCODING 206
SWIDTH 17 0
DWIDTH 4 0
BBX 6 18 0 0
BITMAP
18
24
00
10
10
10
30
20
20
20
60
60
40
40
40
C0
80
80
ENDCHAR

STARTCHAR char207
ENCODING 207
SWIDTH 17 0
DWIDTH 4 0
BBX 6 18 0 0
BITMAP
24
24
00
10
10
10
30
20
20
20
60
60
40
40
40
C0
80
80
ENDCHAR

STARTCHAR char208
ENCODING 208
SWIDTH 3 0
DWIDTH 21 0
BBX 0 0 0 0
BITMAP
ENDCHAR

STARTCHAR char209
ENCODING 209
SWIDTH 3 0
DWIDTH 11 0
BBX 11 18 0 0
BITMAP
0740
0480
0000
1020
1820
3820
2840
2840
2C40
6440
64C0
4480
4480
4280
C280
8380
8300
8300
ENDCHAR

STARTCHAR char210
ENCODING 210
SWIDTH 3 0
DWIDTH 11 0
BBX 9 18 1 0
BITMAP
0800
0400
0000
1E00
3100
2080
4080
4080
C080
8080
8180
8100
8100
8100
8300
8200
C400
7800
ENDCHAR

STARTCHAR char211
ENCODING 211
SWIDTH 3 0
DWIDTH 11 0
BBX 9 18 1 0
BITMAP
0100
0200
0000
1E00
3100
2080
4080
4080
C080
8080
8180
8100
8100
8100
8300
8200
C400
7800
ENDCHAR

STARTCHAR char212
ENCODING 212
SWIDTH 3 0
DWIDTH 11 0
BBX 9 18 1 0
BITMAP
0600
0900
0000
1E00
3100
2080
4080
4080
C080
8080
8180
8100
8100
8100
8300
8200
C400
7800
ENDCHAR

STARTCHAR char213
ENCODING 213
SWIDTH 3 0
DWIDTH 11 0
BBX 9 18 1 0
BITMAP
0E80
1100
0000
1E00
3100
2080
4080
4080
C080
8080
8180
8100
8100
8300
8300
8200
C400
7800
ENDCHAR

STARTCHAR char214
ENCODING 214
SWIDTH 3 0
DWIDTH 11 0
BBX 9 18 1 0
BITMAP
0D80
0900
0000
1E00
3100
2080
4080
4080
C080
8080
8180
8100
8100
8100
8300
8200
C400
7800
ENDCHAR

STARTCHAR char215
ENCODING 215
SWIDTH 3 0
DWIDTH 21 0
BBX 0 0 0 0
BITMAP
ENDCHAR

STARTCHAR char216
ENCODING 216
SWIDTH 3 0
DWIDTH 11 0
BBX 11 16 0 -1
BITMAP
0F20
18C0
10C0
2140
2140
2240
42C0
44C0
48C0
4880
5180
6180
6100
6200
BC00
8000
ENDCHAR

STARTCHAR char217
ENCODING 217
SWIDTH 3 0
DWIDTH 11 0
BBX 11 18 0 0
BITMAP
0400
0200
0000
1020
3020
2060
2040
2040
6040
60C0
4080
4080
C080
C080
8180
8100
4300
3C00
ENDCHAR

STARTCHAR char218
ENCODING 218
SWIDTH 3 0
DWIDTH 11 0
BBX 11 18 0 0
BITMAP
0080
0100
0000
1020
3020
2060
2040
2040
6040
60C0
4080
4080
C080
C080
8180
8100
4300
3C00
ENDCHAR

STARTCHAR char219
ENCODING 219
SWIDTH 3 0
DWIDTH 11 0
BBX 11 18 0 0
BITMAP
0300
0480
0000
1020
3020
2060
2040
2040
6040
60C0
4080
4080
C080
C080
8180
8100
4300
3C00
ENDCHAR

STARTCHAR char220
ENCODING 220
SWIDTH 3 0
DWIDTH 11 0
BBX 11 18 0 0
BITMAP
0680
0480
0000
1020
3020
2060
2040
2040
6040
60C0
4080
4080
C080
C080
8180
8100
4300
3E00
ENDCHAR

STARTCHAR char221
ENCODING 221
SWIDTH 3 0
DWIDTH 21 0
BBX 0 0 0 0
BITMAP
ENDCHAR

STARTCHAR char223
ENCODING 223
SWIDTH 38 0
DWIDTH 9 0
BBX 8 15 0 0
BITMAP
0E
11
31
21
21
23
6E
46
42
42
42
C2
82
84
9C
ENDCHAR

STARTCHAR char224
ENCODING 224
SWIDTH 34 0
DWIDTH 8 0
BBX 7 15 0 0
BITMAP
30
18
08
00
1C
22
42
02
06
3C
44
84
8C
8C
74
ENDCHAR

STARTCHAR char225
ENCODING 225
SWIDTH 34 0
DWIDTH 8 0
BBX 8 15 0 0
BITMAP
03
06
04
00
1C
22
42
02
06
3C
44
84
8C
8C
74
ENDCHAR

STARTCHAR char226
ENCODING 226
SWIDTH 34 0
DWIDTH 8 0
BBX 8 15 0 0
BITMAP
0C
1A
12
00
1C
22
42
02
06
3C
44
84
8C
8C
74
ENDCHAR

STARTCHAR char227
ENCODING 227
SWIDTH 34 0
DWIDTH 8 0
BBX 8 14 0 0
BITMAP
3F
00
00
1C
22
42
02
06
3C
44
84
8C
8C
74
ENDCHAR

STARTCHAR char228
ENCODING 228
SWIDTH 34 0
DWIDTH 8 0
BBX 8 14 0 0
BITMAP
12
12
00
1C
22
42
02
06
3C
44
84
8C
88
74
ENDCHAR

STARTCHAR char229
ENCODING 229
SWIDTH 34 0
DWIDTH 8 0
BBX 7 16 0 0
BITMAP
0C
12
12
0C
00
1C
22
42
02
06
3C
44
84
8C
8C
F4
ENDCHAR

STARTCHAR char230
ENCODING 230
SWIDTH 12 0
DWIDTH 13 0
BBX 12 11 0 0
BITMAP
1DE0
6730
4210
0210
0410
3FF0
C400
8400
8C20
8C40
7380
ENDCHAR

STARTCHAR char231
ENCODING 231
SWIDTH 34 0
DWIDTH 8 0
BBX 7 16 0 -5
BITMAP
1C
22
42
40
C0
C0
80
80
84
CC
78
00
60
20
40
40
ENDCHAR

STARTCHAR char232
ENCODING 232
SWIDTH 34 0
DWIDTH 8 0
BBX 7 15 0 0
BITMAP
30
18
08
00
1C
22
42
42
C2
FE
80
80
84
CC
78
ENDCHAR

STARTCHAR char233
ENCODING 233
SWIDTH 34 0
DWIDTH 8 0
BBX 8 15 0 0
BITMAP
03
06
0C
00
1C
22
42
42
C2
FE
80
80
84
CC
78
ENDCHAR

STARTCHAR char234
ENCODING 234
SWIDTH 34 0
DWIDTH 8 0
BBX 8 15 0 0
BITMAP
0C
1A
12
00
1C
22
42
42
C2
FE
80
80
84
CC
78
ENDCHAR

STARTCHAR char235
ENCODING 235
SWIDTH 34 0
DWIDTH 8 0
BBX 8 14 0 0
BITMAP
12
12
00
1C
22
42
42
C2
FE
80
80
84
CC
78
ENDCHAR

STARTCHAR char236
ENCODING 236
SWIDTH 17 0
DWIDTH 4 0
BBX 3 15 0 0
BITMAP
40
60
20
00
20
20
20
60
40
40
40
C0
80
80
80
ENDCHAR

STARTCHAR char237
ENCODING 237
SWIDTH 17 0
DWIDTH 4 0
BBX 6 15 0 0
BITMAP
0C
18
20
00
20
20
20
60
40
40
40
C0
80
80
80
ENDCHAR

STARTCHAR char238
ENCODING 238
SWIDTH 17 0
DWIDTH 4 0
BBX 5 15 0 0
BITMAP
30
68
C8
00
20
20
20
60
40
40
40
C0
80
80
80
ENDCHAR

STARTCHAR char239
ENCODING 239
SWIDTH 17 0
DWIDTH 4 0
BBX 6 14 0 0
BITMAP
48
48
00
20
20
20
60
40
40
40
C0
80
80
80
ENDCHAR

STARTCHAR char241
ENCODING 241
SWIDTH 38 0
DWIDTH 9 0
BBX 9 14 0 0
BITMAP
1F80
0000
0000
2E00
3300
6100
4300
4300
4200
4200
C600
8600
8400
8400
ENDCHAR

STARTCHAR char242
ENCODING 242
SWIDTH 38 0
DWIDTH 9 0
BBX 7 15 0 0
BITMAP
10
18
08
00
1C
22
42
42
C2
82
82
82
84
CC
78
ENDCHAR

STARTCHAR char243
ENCODING 243
SWIDTH 38 0
DWIDTH 9 0
BBX 8 15 0 0
BITMAP
03
06
04
00
1C
22
42
42
C2
82
82
82
84
CC
78
ENDCHAR

STARTCHAR char244
ENCODING 244
SWIDTH 38 0
DWIDTH 9 0
BBX 8 15 0 0
BITMAP
04
0A
12
00
1C
22
42
42
C2
82
82
82
84
CC
78
ENDCHAR

STARTCHAR char245
ENCODING 245
SWIDTH 38 0
DWIDTH 9 0
BBX 8 14 0 0
BITMAP
3F
00
00
1C
22
42
42
C2
82
82
82
84
CC
78
ENDCHAR

STARTCHAR char246
ENCODING 246
SWIDTH 38 0
DWIDTH 9 0
BBX 8 14 0 0
BITMAP
1B
12
00
1C
22
42
42
C2
82
82
82
84
CC
78
ENDCHAR

STARTCHAR char247
ENCODING 247
SWIDTH 8 0
DWIDTH 12 0
BBX 11 7 0 2
BITMAP
0C00
0C00
0000
FFE0
0000
0C00
0C00
ENDCHAR

STARTCHAR char248
ENCODING 248
SWIDTH 38 0
DWIDTH 9 0
BBX 9 13 -1 -1
BITMAP
0080
0E80
1100
2300
2300
6500
4900
4900
5100
6200
4600
BC00
8000
ENDCHAR

STARTCHAR char249
ENCODING 249
SWIDTH 38 0
DWIDTH 9 0
BBX 8 15 0 0
BITMAP
18
08
08
00
21
21
61
42
42
42
C2
82
84
8C
74
ENDCHAR

STARTCHAR char250
ENCODING 250
SWIDTH 38 0
DWIDTH 9 0
BBX 8 15 0 0
BITMAP
03
02
04
00
21
21
61
42
42
42
C2
82
84
8C
74
ENDCHAR

STARTCHAR char251
ENCODING 251
SWIDTH 38 0
DWIDTH 9 0
BBX 8 15 0 0
BITMAP
06
0A
11
00
21
21
61
42
42
42
C2
82
84
8C
74
ENDCHAR

STARTCHAR char252
ENCODING 252
SWIDTH 38 0
DWIDTH 9 0
BBX 8 14 0 0
BITMAP
19
12
00
21
21
61
42
42
42
C2
86
84
8C
74
ENDCHAR

STARTCHAR char255
ENCODING 255
SWIDTH 30 0
DWIDTH 7 0
BBX 10 18 -2 -4
BITMAP
0C80
0900
0000
1080
1080
1100
1100
1200
1200
1400
1400
1800
1800
1000
1000
3000
2000
C000
ENDCHAR
ENDFONT
